<?xml version="1.0" ?><svg id="Layer_1" style="enable-background:new 0 0 512 512;" version="1.1" viewBox="0 0 512 512" xml:space="preserve" xmlns="http://www.w3.org/2000/svg" xmlns:xlink="http://www.w3.org/1999/xlink"><style type="text/css">
	.st0{fill:#2E4356;}
	.st1{fill:#13283B;}
	.st2{fill:#CCE134;}
	.st3{fill:#97BE15;}
	.st4{fill:#FBD502;}
	.st5{fill:#F5A506;}
	.st6{fill:#90C9C1;}
	.st7{fill:#3D7768;}
</style><g id="XMLID_109_"><g id="XMLID_116_"><path class="st0" d="M6.7,250.7v187.7c0,12.5,24.3,22.7,54.3,22.7c30,0,54.3-10.2,54.3-22.7V250.7H6.7z" id="XMLID_118_"/><ellipse class="st1" cx="61" cy="250.7" id="XMLID_117_" rx="54.3" ry="22.7"/></g><g id="XMLID_124_"><path class="st2" d="M137.1,191.4v246.9c0,12.5,24.3,22.7,54.3,22.7c30,0,54.3-10.2,54.3-22.7V191.4H137.1z" id="XMLID_121_"/><ellipse class="st3" cx="191.4" cy="192.6" id="XMLID_120_" rx="54.3" ry="22.7"/></g><g id="XMLID_125_"><path class="st4" d="M267.6,132.2v306.2c0,12.5,24.3,22.7,54.3,22.7c30,0,54.3-10.2,54.3-22.7V132.2H267.6z" id="XMLID_123_"/><ellipse class="st5" cx="321.9" cy="133.3" id="XMLID_122_" rx="54.3" ry="22.7"/></g><g id="XMLID_127_"><path class="st6" d="M398,72.9v365.4c0,12.5,24.3,22.7,54.3,22.7c30,0,54.3-10.2,54.3-22.7V72.9H398z" id="XMLID_130_"/><ellipse class="st7" cx="452.3" cy="74" id="XMLID_129_" rx="54.3" ry="22.7"/></g></g></svg>